<svg version="1.1" id="Layer_2" xmlns="http://www.w3.org/2000/svg" x="0" y="0" viewBox="0 0 80.3 80.3" style="enable-background:new 0 0 80.3 80.3" xml:space="preserve"><style>.st4{fill:#fff}.st6{fill:#0c2c48}.st17{fill:#628185}</style><circle cx="40.2" cy="40.2" r="40.2" style="fill:#ed6b5a"/><path class="st6" d="M67.7 56.2c0 .7-.5 1.2-1.2 1.2H13.8c-.7 0-1.2-.5-1.2-1.2V17.4c0-.7.5-1.2 1.2-1.2h52.8c.7 0 1.2.5 1.2 1.2v38.8z"/><path style="fill:#bababa" d="M29.8 56.3h20.7v7H29.8z"/><path class="st4" d="M55.6 68.1v-2.2c0-1.7-1.3-3-3-3h-25c-1.7 0-3 1.3-3 3v2.2h31z"/><path style="fill:#50646f" d="M15.5 18.6h49.2v30.5H15.5z"/><path style="fill:#f8a06d" d="M15.5 18.6h49.2v5.8H15.5z"/><g><path class="st4" d="M12.6 48.1v8.1c0 .7.5 1.2 1.2 1.2h52.8c.7 0 1.2-.5 1.2-1.2v-8.1H12.6z"/></g><g><circle class="st6" cx="40.1" cy="52.5" r="1.5"/></g><g><path style="fill:#ffd3b5" d="m48.6 30.7 3-5.7-5.8 3z"/><path class="st6" d="m50.4 27.2 1.2-2.2-2.3 1.2z"/><path d="M48.6 29.8c-.2-.2-.6-.2-.9.1.3-.3.3-.7.1-.9-.2-.2-.6-.2-.9.1.3-.3.3-.7.1-.9-.2-.2-.6-.2-.9.1L29.9 44c-.3.3-.3.7-.1.9l2 2c.2.2.6.2.9-.1l15.9-16c.2-.4.2-.8 0-1z" style="fill:#e07e45"/><path d="M31.5 42.4 29.9 44c-.3.3-.3.7-.1.9l2 2c.2.2.6.2.9-.1l1.6-1.6-2.8-2.8z" style="fill:#ff8f8f"/><path transform="rotate(-45.114 34.35 42.277)" style="fill:#a6d1d9" d="M31.7 40.2H37v4.1h-5.3z"/><path transform="rotate(-45.114 33.341 43.288)" class="st17" d="M33.2 41.2h.4v4.1h-.4z"/><path transform="rotate(-45.114 34.35 42.277)" class="st17" d="M34.2 40.2h.4v4.1h-.4z"/><path class="st17" d="m34 39.7 2.9 2.9-.2.2-2.9-2.9z"/></g><g><path class="st6" d="M65.3 24.6H15v-6.8h50.2v6.8zm-49.3-1h48.2v-4.8H16v4.8z"/></g><g><path class="st6" d="M18.8 21.4c0-.4.3-.8.7-.8.4 0 .7.3.7.8 0 .4-.3.8-.7.8-.4-.1-.7-.4-.7-.8zM21.3 21.4c0-.4.3-.8.7-.8.4 0 .7.3.7.8 0 .4-.3.8-.7.8-.4-.1-.7-.4-.7-.8zM23.8 21.4c0-.4.3-.8.7-.8.4 0 .7.3.7.8 0 .4-.3.8-.7.8-.4-.1-.7-.4-.7-.8z"/></g></svg>